<svg width="189" height="183" viewBox="0 0 189 183" fill="none" xmlns="http://www.w3.org/2000/svg">
<g clip-path="url(#clip0_0_184)">
<path d="M39.4653 115.468H0.454773L31.1066 130.291L39.4653 115.468Z" fill="#303030"/>
<path d="M149.475 115.468H188.543L157.833 130.291L149.475 115.468Z" fill="#303030"/>
<path d="M94.8163 182.118C93.5754 182.118 92.3925 181.831 91.4831 181.305L84.6834 177.404C83.8971 176.953 82.5638 176.652 81.3639 176.652C80.9365 176.652 80.5434 176.689 80.2323 176.765L72.6052 178.59C72.1916 178.689 71.7437 178.741 71.2754 178.741C69.378 178.741 67.3917 177.944 66.2089 176.713L60.7834 171.055C59.9083 170.143 57.9562 169.25 56.6947 169.189L48.8659 168.792C46.7122 168.683 44.2473 167.1 43.2559 165.189L39.6423 158.232C39.0612 157.107 37.4407 155.702 36.2442 155.285L28.8428 152.7C26.8086 151.989 24.8908 149.777 24.4771 147.661L22.9695 139.966C22.7267 138.721 21.5678 136.92 20.5388 136.181L14.1664 131.614C12.416 130.359 11.199 127.696 11.3973 125.549L12.1186 117.741C12.2348 116.48 11.6331 114.425 10.8537 113.427L6.02652 107.249C4.70007 105.55 4.283 102.654 5.07955 100.651L7.97175 93.3625C8.4401 92.1865 8.4401 90.0396 7.97175 88.8635L5.07955 81.5749C4.283 79.575 4.70007 76.6726 6.02652 74.9769L10.8537 68.7993C11.6331 67.8011 12.2383 65.7465 12.1186 64.485L11.3973 56.6801C11.199 54.5332 12.416 51.8701 14.163 50.6154L20.5388 46.0481C21.5678 45.3096 22.7267 43.508 22.9695 42.2636L24.4771 34.5681C24.8942 32.452 26.8086 30.2401 28.8428 29.529L36.2442 26.9445C37.4407 26.5274 39.0612 25.1224 39.6423 23.9976L43.2559 17.0406C44.2473 15.1296 46.7122 13.5433 48.8659 13.4373L56.6947 13.0408C57.9596 12.9758 59.9083 12.0869 60.7834 11.1707L66.2089 5.51283C67.3917 4.28211 69.378 3.48556 71.2754 3.48556C71.7437 3.48556 72.1916 3.53684 72.6052 3.63598L80.2323 5.46155C80.5468 5.53677 80.9365 5.57779 81.3639 5.57779C82.5638 5.57779 83.8971 5.27353 84.6834 4.82226L91.4831 0.921554C92.3959 0.398497 93.5788 0.111328 94.8163 0.111328C96.0539 0.111328 97.2368 0.398497 98.1495 0.921554L104.953 4.82226C105.739 5.27353 107.072 5.57779 108.272 5.57779C108.7 5.57779 109.089 5.53677 109.4 5.46155L117.027 3.63598C117.441 3.53684 117.889 3.48556 118.357 3.48556C120.255 3.48556 122.241 4.28211 123.424 5.51283L128.853 11.1707C129.728 12.0835 131.676 12.9758 132.941 13.0408L140.77 13.4373C142.921 13.5467 145.385 15.1296 146.38 17.0406L149.994 23.9976C150.578 25.1189 152.199 26.524 153.392 26.9445L160.793 29.529C162.831 30.2401 164.745 32.452 165.159 34.5681L166.667 42.2636C166.909 43.5046 168.068 45.3062 169.101 46.0481L175.473 50.6154C177.227 51.8735 178.444 54.5366 178.242 56.6801L177.521 64.485C177.401 65.7465 178.006 67.8045 178.786 68.7993L183.616 74.9769C184.943 76.6726 185.36 79.575 184.563 81.5749L181.671 88.8601C181.203 90.0361 181.203 92.1796 181.671 93.3591L184.563 100.648C185.36 102.651 184.943 105.547 183.616 107.246L178.789 113.423C178.006 114.422 177.405 116.476 177.521 117.738L178.242 125.546C178.441 127.689 177.223 130.356 175.473 131.611L169.101 136.175C168.072 136.913 166.913 138.715 166.67 139.959L165.162 147.651C164.749 149.764 162.831 151.979 160.797 152.69L153.392 155.275C152.199 155.692 150.578 157.097 149.99 158.222L146.38 165.179C145.385 167.09 142.924 168.673 140.77 168.782L132.938 169.178C131.673 169.243 129.724 170.132 128.849 171.045L123.42 176.703C122.241 177.934 120.251 178.73 118.354 178.73C117.886 178.73 117.438 178.679 117.024 178.58L109.4 176.754C109.089 176.679 108.696 176.641 108.269 176.641C107.069 176.641 105.732 176.942 104.946 177.394L98.1461 181.294C97.2368 181.817 96.0505 182.108 94.8129 182.108L94.8163 182.118Z" fill="url(#paint0_linear_0_184)"/>
<path d="M180.303 93.906C179.695 92.371 179.695 89.8617 180.303 88.3268L183.196 81.0416C183.804 79.5066 183.469 77.1887 182.454 75.8862L177.627 69.7087C176.608 68.4096 175.9 65.9994 176.054 64.355L176.775 56.5502C176.929 54.9058 175.955 52.776 174.611 51.8153L168.239 47.248C166.899 46.2873 165.542 44.1746 165.224 42.5541L163.716 34.8587C163.398 33.2382 161.863 31.4674 160.308 30.9238L152.906 28.3358C151.347 27.7923 149.45 26.1479 148.691 24.6813L145.077 17.7243C144.318 16.2577 142.346 14.9928 140.698 14.9073L132.866 14.5107C131.218 14.4287 128.934 13.3826 127.789 12.1929L122.364 6.53496C121.222 5.34526 118.972 4.68204 117.369 5.06835L109.745 6.89392C108.142 7.28023 105.657 6.92127 104.224 6.10079L97.4244 2.20008C95.992 1.3796 93.6502 1.3796 92.2178 2.20008L85.4181 6.10079C83.9856 6.92127 81.5003 7.28023 79.8969 6.89392L72.2698 5.06835C70.6665 4.68545 68.417 5.34526 67.2717 6.53496L61.8463 12.1929C60.7045 13.3826 58.4208 14.4287 56.773 14.5107L48.9442 14.9073C47.2964 14.9928 45.3238 16.2577 44.5649 17.7243L40.9513 24.6813C40.1924 26.1445 38.295 27.7889 36.7361 28.3358L29.3347 30.9238C27.7758 31.4674 26.2408 33.2382 25.9229 34.8587L24.4152 42.5541C24.0973 44.1746 22.7401 46.2873 21.3999 47.248L15.0275 51.8153C13.684 52.776 12.7131 54.9058 12.8635 56.5502L13.5849 64.355C13.7387 65.9994 13.031 68.4061 12.0123 69.7087L7.18168 75.8862C6.16633 77.1887 5.8313 79.5066 6.43982 81.0416L9.33202 88.3268C9.94055 89.8617 9.94055 92.371 9.33202 93.906L6.43982 101.195C5.8313 102.73 6.16291 105.047 7.18168 106.35L12.0123 112.528C13.0276 113.827 13.7353 116.237 13.5849 117.881L12.8635 125.689C12.7097 127.334 13.684 129.464 15.0275 130.428L21.3999 134.995C22.7435 135.956 24.1007 138.068 24.4152 139.689L25.9229 147.384C26.2408 149.005 27.7758 150.776 29.3347 151.323L36.7361 153.911C38.295 154.454 40.1924 156.102 40.9513 157.565L44.5649 164.522C45.3272 165.989 47.2964 167.254 48.9442 167.339L56.773 167.736C58.4208 167.818 60.7045 168.864 61.8463 170.054L67.2717 175.712C68.4136 176.905 70.6631 177.561 72.2698 177.178L79.8969 175.353C81.5003 174.97 83.9856 175.325 85.4181 176.146L92.2178 180.046C93.6502 180.87 95.992 180.87 97.4244 180.046L104.224 176.146C105.657 175.322 108.142 174.966 109.745 175.353L117.369 177.178C118.972 177.561 121.222 176.901 122.364 175.712L127.789 170.054C128.931 168.864 131.215 167.821 132.866 167.736L140.698 167.339C142.346 167.254 144.318 165.989 145.077 164.522L148.691 157.565C149.45 156.102 151.347 154.458 152.906 153.911L160.308 151.323C161.866 150.776 163.401 149.005 163.716 147.384L165.224 139.689C165.542 138.068 166.899 135.956 168.239 134.995L174.611 130.428C175.955 129.467 176.926 127.334 176.775 125.689L176.054 117.881C175.9 116.237 176.611 113.83 177.627 112.528L182.454 106.35C183.469 105.047 183.804 102.73 183.196 101.195L180.303 93.906Z" fill="url(#paint1_linear_0_184)"/>
<path d="M94.8165 21.6284C56.4385 21.6284 25.3286 52.7384 25.3286 91.1164C25.3286 129.494 56.4419 160.604 94.8165 160.604C133.191 160.604 164.305 129.494 164.305 91.1164C164.305 52.7384 133.191 21.6284 94.8165 21.6284Z" fill="url(#paint2_linear_0_184)"/>
<path d="M94.8163 23.6182C57.5357 23.6182 27.3146 53.8393 27.3146 91.1199C27.3146 128.401 57.5357 158.622 94.8163 158.622C132.097 158.622 162.318 128.401 162.318 91.1199C162.318 53.8393 132.097 23.6182 94.8163 23.6182Z" fill="#1A1A1A"/>
<path d="M94.8163 133.419C71.453 133.419 52.5136 114.48 52.5136 91.1166C52.5136 67.7534 71.453 48.814 94.8163 48.814C118.179 48.814 137.119 67.7534 137.119 91.1166C137.119 114.48 118.179 133.419 94.8163 133.419Z" fill="url(#paint3_linear_0_184)"/>
<path d="M24.1011 115.136L23.6601 113.717L22.173 113.7L23.3832 112.842L22.9422 111.423L24.1319 112.309L25.3421 111.451L24.8669 112.859L26.06 113.748L24.5763 113.731L24.0977 115.136H24.1011ZM22.4704 109.67L22.1388 108.22L20.6585 108.09L21.9337 107.328L21.6021 105.882L22.7234 106.856L23.9951 106.094L23.414 107.458L24.5353 108.436L23.055 108.302L22.4704 109.666V109.67ZM21.2602 104.084L21.0414 102.617L19.5748 102.371L20.9047 101.708L20.6859 100.241L21.7251 101.297L23.055 100.634L22.3678 101.95L23.4105 103.014L21.9439 102.767L21.2568 104.084H21.2602ZM20.4876 98.4325L20.3816 96.9522L18.9389 96.5967L20.3166 96.0394L20.2107 94.5591L21.1679 95.6941L22.5456 95.1369L21.7593 96.3984L22.7166 97.5368L21.2773 97.1813L20.491 98.4393L20.4876 98.4325ZM20.1491 92.7438L20.156 91.2601L18.744 90.7918L20.1594 90.3405L20.1662 88.8568L21.0311 90.0602L22.4465 89.6089L21.5679 90.8054L22.4328 92.0122L21.0243 91.5473L20.1457 92.7404L20.1491 92.7438ZM20.2483 87.0381L20.3713 85.5612L19.0004 84.9869L20.4465 84.645L20.5662 83.1647L21.3388 84.433L22.7849 84.0912L21.8174 85.2193L22.5901 86.4877L21.2192 85.9133L20.2517 87.0381H20.2483ZM20.7816 81.3596L21.014 79.893L19.691 79.2196L21.1576 78.9871L21.3901 77.5205L22.0636 78.8435L23.5302 78.611L22.4772 79.6606L23.1507 80.9836L21.8277 80.3101L20.7747 81.3562L20.7816 81.3596ZM21.7422 75.7462L22.0875 74.3001L20.8192 73.5275L22.2995 73.4078L22.6448 71.9651L23.2157 73.336L24.696 73.2164L23.5678 74.1838L24.1387 75.5547L22.8704 74.7821L21.7422 75.7462ZM23.1302 70.2113L23.5815 68.796L22.3781 67.9311L23.8618 67.9242L24.3131 66.5089L24.778 67.9174L26.2651 67.9106L25.0652 68.7892L25.5301 70.2011L24.3267 69.3327L23.1268 70.2079L23.1302 70.2113ZM24.9319 64.803L25.4891 63.4287L24.3541 62.4715L25.8344 62.5774L26.3916 61.2031L26.7506 62.6458L28.2309 62.7518L26.9694 63.5381L27.3249 64.9808L26.1899 64.0235L24.9284 64.8064L24.9319 64.803ZM27.1437 59.5417L27.8035 58.2152L26.7438 57.1759L28.2138 57.3947L28.8736 56.0649L29.1197 57.5281L30.5898 57.7469L29.2736 58.434L29.5197 59.9006L28.4599 58.8613L27.1437 59.5451V59.5417ZM29.7419 54.4683L30.5043 53.1932L29.5266 52.0753L30.9761 52.4069L31.7384 51.1317L31.8752 52.612L33.3247 52.9402L31.9572 53.5248L32.0906 55.0051L31.1128 53.8872L29.7488 54.4683H29.7419ZM32.7299 49.6036L33.5845 48.3899L32.6957 47.2002L34.1144 47.6378L34.9691 46.4242L34.9896 47.9079L36.4118 48.3489L35.0033 48.8275L35.0238 50.3147L34.1349 49.125L32.7299 49.6001V49.6036ZM36.0767 44.9849L37.0237 43.8431L36.2272 42.5884L37.6049 43.1354L38.5519 41.9936L38.4595 43.4773L39.8407 44.0243L38.4014 44.3901L38.3091 45.8738L37.5126 44.6191L36.0733 44.9849H36.0767ZM39.7655 40.6364L40.7979 39.5698L40.1005 38.257L41.4338 38.91L42.4662 37.8433L42.2577 39.3134L43.5944 39.9663L42.1278 40.2227L41.9227 41.6962L41.2253 40.3834L39.7621 40.6398L39.7655 40.6364ZM43.7893 36.5784L44.9003 35.5938L44.3089 34.2298L45.5875 34.9819L46.6986 33.9973L46.3806 35.4468L47.6592 36.1989L46.1789 36.3425L45.8576 37.7955L45.2661 36.4348L43.7893 36.5784ZM48.0968 32.8555L49.2797 31.9564L48.7942 30.5547L50.0113 31.4025L51.1941 30.5034L50.7668 31.9256L51.9873 32.7734L50.5001 32.8042L50.0694 34.2264L49.5805 32.8213L48.0968 32.8521V32.8555ZM52.6881 29.4641L53.9359 28.6608L53.5564 27.2249L54.7085 28.1616L55.9563 27.3582L55.4196 28.7428L56.5717 29.6829L55.088 29.5975L54.5513 30.982L54.1718 29.5462L52.6881 29.4607V29.4641ZM57.5084 26.4352L58.8109 25.7275L58.5409 24.2678L59.6212 25.2899L60.9237 24.5823L60.2878 25.9224L61.3647 26.9446L59.8912 26.7531L59.2519 28.0933L58.9819 26.6335L57.5118 26.4386L57.5084 26.4352ZM62.5578 23.7721L63.9116 23.1635L63.7543 21.6867L64.7492 22.7875L66.103 22.179L65.3679 23.4678L66.3628 24.5686L64.9098 24.2643L64.168 25.5532L64.0073 24.0763L62.5578 23.7721ZM67.7918 21.5021L69.19 20.9995L69.1422 19.5158L70.0515 20.6918L71.4498 20.1893L70.6156 21.42L71.525 22.5926L70.0994 22.1755L69.2618 23.4063L69.214 21.9226L67.7884 21.5055L67.7918 21.5021ZM73.1762 19.6355L74.6052 19.2423L74.6736 17.7586L75.4906 18.9996L76.9231 18.6064L75.9966 19.7688L76.8137 21.0098L75.4223 20.4867L74.4958 21.6491L74.5642 20.1654L73.1762 19.6423V19.6355ZM78.7008 18.1894L80.1571 17.909L80.3383 16.4356L81.0597 17.7347L82.516 17.4543L81.5041 18.5415L82.222 19.8406L80.8751 19.2115L79.8597 20.2987L80.0409 18.8252L78.6974 18.1962L78.7008 18.1894ZM84.3177 17.174L85.7945 17.0031L86.0885 15.5467L86.7039 16.8971L88.1808 16.7262L87.0868 17.7313L87.7021 19.0816L86.4065 18.35L85.3125 19.3551L85.6065 17.8988L84.3142 17.1672L84.3177 17.174ZM89.9892 16.5928L91.4729 16.5381L91.8798 15.1091L92.3926 16.504L93.8763 16.4493L92.7105 17.3689L93.2199 18.7637L91.9857 17.9364L90.8166 18.856L91.2234 17.427L89.9892 16.5997V16.5928ZM95.6916 16.4458L97.1753 16.504L97.6881 15.1091L98.0915 16.5381L99.5752 16.5963L98.3411 17.4236L98.7479 18.8526L97.5787 17.933L96.3446 18.7603L96.8574 17.3655L95.695 16.4458H95.6916ZM101.38 16.7364L102.857 16.9074L103.476 15.557L103.77 17.0133L105.243 17.1843L103.951 17.9124L104.245 19.3688L103.151 18.3637L101.855 19.0953L102.471 17.7449L101.38 16.7398V16.7364ZM107.035 17.4612L108.495 17.7415L109.212 16.4424L109.397 17.9159L110.853 18.1962L109.51 18.8286L109.694 20.3021L108.679 19.215L107.332 19.844L108.054 18.5449L107.042 17.4612H107.035ZM112.628 18.6133L114.057 19.0064L114.874 17.7654L114.942 19.2491L116.375 19.6423L114.987 20.1688L115.055 21.6525L114.125 20.4935L112.734 21.0166L113.551 19.7756L112.624 18.6167L112.628 18.6133ZM118.115 20.1824L119.513 20.6816L120.422 19.5055L120.378 20.9893L121.776 21.4884L120.35 21.9089L120.306 23.3926L119.468 22.1653L118.043 22.5858L118.949 21.4097L118.115 20.1824ZM123.458 22.1653L124.812 22.7704L125.807 21.6662L125.653 23.143L127.01 23.7481L125.557 24.0558L125.4 25.5327L124.658 24.2473L123.205 24.5549L124.2 23.4507L123.458 22.1653ZM128.641 24.5515L129.95 25.2558L131.024 24.2336L130.757 25.6933L132.063 26.3976L130.593 26.5959L130.326 28.0591L129.683 26.719L128.21 26.9138L129.287 25.8882L128.648 24.5481L128.641 24.5515ZM133.629 27.3241L134.876 28.1274L136.029 27.1873L135.649 28.6232L136.897 29.4265L135.417 29.512L135.037 30.9479L134.497 29.5633L133.013 29.6453L134.165 28.7052L133.629 27.3206V27.3241ZM138.381 30.4692L139.563 31.3649L140.781 30.5171L140.295 31.9188L141.478 32.8145L139.994 32.7871L139.509 34.1888L139.078 32.7666L137.591 32.7358L138.811 31.888L138.384 30.4658L138.381 30.4692ZM142.886 33.97L143.997 34.9545L145.279 34.2024L144.685 35.5631L145.796 36.5511L144.319 36.4075L143.724 37.7681L143.403 36.3152L141.922 36.1716L143.204 35.4195L142.886 33.97ZM147.112 37.8126L148.144 38.8792L149.478 38.2262L148.78 39.539L149.813 40.609L148.353 40.3526L147.655 41.6654L147.45 40.192L145.984 39.9321L147.317 39.2826L147.112 37.8126ZM151.019 41.9594L151.966 43.1047L153.348 42.5577L152.554 43.8123L153.498 44.9576L152.059 44.5918L151.262 45.8464L151.17 44.3627L149.731 43.9935L151.112 43.4465L151.019 41.9662V41.9594ZM154.606 46.4037L155.464 47.6173L156.882 47.1763L155.994 48.366L156.848 49.5796L155.443 49.101L154.554 50.2907L154.575 48.8036L153.166 48.325L154.585 47.884L154.606 46.4003V46.4037ZM157.823 51.0941L158.592 52.3659L160.038 52.0274L159.067 53.1522L159.836 54.4205L158.469 53.8461L157.498 54.9709L157.621 53.4906L156.25 52.9163L157.696 52.5778L157.823 51.0975V51.0941ZM160.705 56.0238L161.368 57.3503L162.834 57.1281L161.778 58.1708L162.441 59.4972L161.125 58.8135L160.065 59.8562L160.308 58.3896L158.988 57.7058L160.458 57.4836L160.701 56.0204L160.705 56.0238ZM163.197 61.1553L163.757 62.5296L165.238 62.4202L164.106 63.3808L164.667 64.7551L163.405 63.9757L162.27 64.9363L162.626 63.4936L161.361 62.7108L162.841 62.6014L163.197 61.1621V61.1553ZM165.289 66.4576L165.744 67.873H167.227L166.024 68.7447L166.479 70.1566L165.279 69.2815L164.075 70.1532L164.537 68.7413L163.337 67.8661H164.824L165.289 66.4611V66.4576ZM166.971 71.9036L167.316 73.3463L168.797 73.4659L167.528 74.242L167.874 75.6846L166.745 74.7206L165.477 75.4966L166.048 74.1223L164.92 73.1548L166.4 73.2711L166.971 71.9036ZM168.229 77.4692L168.462 78.9358L169.932 79.1683L168.609 79.8418L168.841 81.3084L167.791 80.2588L166.465 80.9323L167.142 79.6093L166.089 78.5597L167.556 78.7888L168.232 77.4658L168.229 77.4692ZM169.053 83.1168L169.173 84.5971L170.615 84.9424L169.244 85.5133L169.364 86.9936L168.397 85.8689L167.026 86.4398L167.798 85.1715L166.831 84.0433L168.277 84.3852L169.05 83.1203L169.053 83.1168ZM169.443 88.8055L169.45 90.2892L170.861 90.7439L169.45 91.2088L169.456 92.6926L168.578 91.496L167.166 91.9609L168.034 90.7542L167.156 89.5542L168.571 90.0089L169.439 88.8055H169.443ZM169.395 94.5147L169.285 95.995L170.663 96.5556L169.22 96.9112L169.111 98.3915L168.328 97.1334L166.885 97.489L167.843 96.3505L167.056 95.089L168.431 95.6497L169.391 94.5147H169.395ZM168.913 100.197L168.694 101.663L170.02 102.326L168.557 102.573L168.335 104.043L167.648 102.726L166.185 102.969L167.227 101.909L166.54 100.59L167.87 101.253L168.913 100.197ZM168.003 105.82L167.672 107.27L168.947 108.032L167.467 108.165L167.138 109.615L166.554 108.251L165.074 108.384L166.192 107.407L165.607 106.039L166.882 106.801L168 105.824L168.003 105.82ZM166.663 111.369L166.222 112.788L167.436 113.642L165.952 113.663L165.511 115.081L165.033 113.676L163.545 113.697L164.735 112.808L164.257 111.4L165.47 112.254L166.66 111.365L166.663 111.369ZM164.91 116.787L164.366 118.169L165.511 119.115L164.027 119.023L163.48 120.404L163.108 118.968L161.624 118.876L162.879 118.08L162.51 116.64L163.655 117.587L164.91 116.791V116.787ZM162.749 122.073L162.099 123.406L163.169 124.438L161.696 124.233L161.05 125.567L160.79 124.107L159.32 123.902L160.629 123.204L160.37 121.741L161.44 122.773L162.749 122.076V122.073ZM160.188 127.177L159.44 128.459L160.428 129.57L158.975 129.252L158.226 130.534L158.079 129.057L156.626 128.739L157.99 128.141L157.843 126.661L158.831 127.772L160.192 127.177H160.188ZM157.248 132.065L156.4 133.286L157.303 134.465L155.877 134.038L155.033 135.258L154.999 133.775L153.577 133.347L154.978 132.855L154.944 131.368L155.843 132.551L157.245 132.062L157.248 132.065ZM153.946 136.711L153.013 137.864L153.819 139.111L152.435 138.578L151.498 139.73L151.58 138.246L150.196 137.713L151.631 137.33L151.713 135.846L152.52 137.094L153.953 136.715L153.946 136.711ZM150.288 141.098L149.266 142.174L149.973 143.477L148.633 142.838L147.611 143.915L147.802 142.441L146.462 141.802L147.922 141.532L148.117 140.058L148.825 141.364L150.284 141.098H150.288ZM146.319 145.176L145.218 146.171L145.823 147.528L144.534 146.786L143.433 147.781L143.738 146.328L142.452 145.586L143.929 145.429L144.237 143.976L144.845 145.33L146.322 145.176H146.319ZM142.028 148.954L140.852 149.86L141.351 151.258L140.124 150.42L138.952 151.326L139.369 149.901L138.145 149.063L139.628 149.019L140.045 147.593L140.545 148.991L142.028 148.95V148.954ZM137.475 152.379L136.234 153.196L136.627 154.629L135.468 153.699L134.227 154.516L134.75 153.128L133.591 152.198L135.078 152.27L135.601 150.878L135.994 152.311L137.478 152.383L137.475 152.379ZM132.671 155.456L131.372 156.177L131.656 157.634L130.569 156.622L129.27 157.343L129.895 155.996L128.812 154.984L130.285 155.165L130.914 153.818L131.198 155.278L132.671 155.459V155.456ZM127.66 158.157L126.313 158.776L126.487 160.252L125.482 159.162L124.132 159.781L124.856 158.485L123.851 157.394L125.308 157.685L126.036 156.389L126.21 157.866L127.663 158.16L127.66 158.157ZM122.443 160.478L121.051 160.991L121.109 162.475L120.19 161.309L118.798 161.825L119.619 160.591L118.699 159.425L120.132 159.825L120.956 158.591L121.017 160.075L122.446 160.478H122.443ZM117.072 162.393L115.643 162.799L115.588 164.283L114.761 163.049L113.332 163.456L114.248 162.287L113.421 161.052L114.819 161.565L115.735 160.396L115.681 161.88L117.075 162.393H117.072ZM111.565 163.886L110.112 164.18L109.944 165.657L109.212 164.365L107.756 164.663L108.761 163.565L108.03 162.273L109.383 162.888L110.388 161.794L110.221 163.268L111.571 163.886H111.565ZM105.968 164.953L104.495 165.134L104.214 166.594L103.585 165.247L102.112 165.432L103.196 164.416L102.567 163.069L103.869 163.787L104.953 162.772L104.672 164.232L105.972 164.95L105.968 164.953ZM100.297 165.586L98.8128 165.654L98.4197 167.086L97.8966 165.698L96.4095 165.767L97.5685 164.837L97.042 163.449L98.283 164.266L99.4419 163.339L99.0487 164.772L100.29 165.589L100.297 165.586ZM94.5942 165.784L93.1105 165.739L92.6114 167.138L92.1943 165.712L90.7106 165.668L91.9345 164.83L91.5174 163.404L92.6934 164.314L93.9207 163.476L93.4182 164.874L94.5908 165.784H94.5942ZM88.8987 165.545L87.4218 165.387L86.8167 166.741L86.509 165.288L85.0322 165.131L86.3176 164.389L86.0099 162.936L87.1141 163.931L88.403 163.189L87.7979 164.546L88.8987 165.541V165.545ZM83.2237 164.868L81.7639 164.601L81.0562 165.907L80.8614 164.433L79.4016 164.163L80.7383 163.521L80.5434 162.047L81.569 163.124L82.9092 162.481L82.2015 163.787L83.2237 164.864V164.868ZM77.6376 163.77L76.2017 163.391L75.3949 164.639L75.3129 163.155L73.877 162.779L75.2582 162.239L75.1761 160.755L76.1163 161.907L77.5008 161.367L76.6974 162.615L77.6341 163.767L77.6376 163.77ZM72.1369 162.249L70.7353 161.763L69.8396 162.946L69.8703 161.463L68.4687 160.977L69.8874 160.546L69.9182 159.059L70.7694 160.28L72.1916 159.849L71.2959 161.035L72.1438 162.252L72.1369 162.249ZM66.773 160.314L65.4124 159.723L64.4278 160.834L64.568 159.353L63.2073 158.762L64.6569 158.437L64.8004 156.96L65.556 158.242L67.0055 157.921L66.0209 159.032L66.773 160.311V160.314ZM61.5732 157.979L60.2604 157.285L59.1938 158.321L59.4468 156.858L58.1374 156.164L59.6075 155.955L59.8605 154.492L60.5134 155.825L61.9835 155.613L60.9168 156.649L61.5698 157.982L61.5732 157.979ZM56.5614 155.247L55.3068 154.454L54.1649 155.405L54.5307 153.965L53.2761 153.172L54.7564 153.073L55.1222 151.634L55.6726 153.015L57.1563 152.919L56.0145 153.87L56.5614 155.247ZM51.7719 152.147L50.5822 151.258L49.372 152.119L49.8472 150.711L48.654 149.825L50.1377 149.843L50.6129 148.434L51.0574 149.853L52.5445 149.87L51.3343 150.728L51.7753 152.147H51.7719ZM47.2421 148.687L46.1242 147.709L44.8491 148.475L45.4302 147.108L44.3089 146.133L45.7858 146.263L46.3669 144.896L46.702 146.345L48.1823 146.479L46.9105 147.241L47.2421 148.69V148.687ZM42.9859 144.885L41.9466 143.826L40.6167 144.489L41.3039 143.169L40.2646 142.109L41.7278 142.352L42.4115 141.033L42.6303 142.503L44.0969 142.749L42.7671 143.412L42.9859 144.879V144.885ZM39.0339 140.769L38.0767 139.634L36.7024 140.195L37.4886 138.934L36.5314 137.799L37.9741 138.154L38.7604 136.893L38.8664 138.376L40.3091 138.735L38.9313 139.293L39.0373 140.773L39.0339 140.769ZM35.4169 136.366L34.5486 135.159L33.1333 135.614L34.0119 134.414L33.1435 133.211L34.552 133.672L35.4306 132.472L35.4238 133.959L36.8357 134.424L35.4203 134.879L35.4135 136.363L35.4169 136.366ZM32.1384 131.693L31.3624 130.424L29.9163 130.77L30.8838 129.642L30.1111 128.373L31.482 128.944L32.4495 127.816L32.3299 129.3L33.7008 129.871L32.2547 130.216L32.135 131.696L32.1384 131.693ZM29.2223 126.79L28.5454 125.471L27.0788 125.707L28.1283 124.654L27.4514 123.331L28.7744 124.001L29.8206 122.948L29.5915 124.418L30.918 125.088L29.4513 125.324L29.2189 126.79H29.2223ZM26.6856 121.69L26.1113 120.322L24.631 120.445L25.7558 119.474L25.1814 118.107L26.4532 118.876L27.5779 117.905L27.236 119.351L28.5078 120.124L27.0275 120.247L26.6856 121.69Z" fill="url(#paint4_linear_0_184)"/>
<path d="M99.746 55.7776L97.117 58.3382L97.7461 61.9518L94.4983 60.2424L91.2506 61.9518L91.8728 58.3382L89.2506 55.7776L92.8779 55.258L94.4983 51.9658L96.1188 55.258L99.746 55.7776Z" fill="#1A1A1A"/>
<path d="M108.893 58.3826L107.635 55.822L106.374 58.3826L103.553 58.7894L105.591 60.7791L105.109 63.5893L107.635 62.2594L110.158 63.5893L109.67 60.7791L111.714 58.7894L108.893 58.3826Z" fill="#1A1A1A"/>
<path d="M82.6209 58.5296L81.3628 55.9724L80.1014 58.5296L77.2809 58.9364L79.3185 60.9261L78.8364 63.7362L81.3628 62.4064L83.8858 63.7362L83.4004 60.9261L85.4413 58.9364L82.6209 58.5296Z" fill="#1A1A1A"/>
<path d="M89.2506 126.455L91.8796 123.895L91.2506 120.281L94.4983 121.994L97.7495 120.281L97.1273 123.895L99.7494 126.455L96.1188 126.978L94.4983 130.271L92.8779 126.978L89.2506 126.455Z" fill="#1A1A1A"/>
<path d="M80.1048 123.853L81.3628 126.414L82.6209 123.853L85.4413 123.447L83.4072 121.457L83.8858 118.647L81.3628 119.977L78.8399 118.647L79.3253 121.457L77.2809 123.447L80.1048 123.853Z" fill="#1A1A1A"/>
<path d="M106.374 123.706L107.635 126.264L108.893 123.706L111.714 123.3L109.676 121.306L110.158 118.5L107.635 119.826L105.109 118.5L105.598 121.306L103.553 123.3L106.374 123.706Z" fill="#1A1A1A"/>
<path d="M0.454773 67.4729V71.5992V111.078V115.58H188.543V111.078V71.5992V67.4729H0.454773Z" fill="url(#paint5_linear_0_184)"/>
<path d="M188.544 69.2676H0.454865V113.782H188.544V69.2676Z" fill="url(#paint6_linear_0_184)"/>
<path d="M31.6466 76.6931C34.9012 76.6931 37.4036 77.3427 39.1574 78.6383C40.9078 79.934 42.0188 81.9613 42.4872 84.7202H34.9148C34.4191 83.3424 33.2875 82.6519 31.5235 82.6519C30.1424 82.6519 29.0142 83.1818 28.1322 84.245C27.2502 85.3082 26.6963 86.7474 26.4775 88.5696C27.3596 87.7696 28.3168 87.1987 29.3526 86.8534C30.3885 86.5081 31.65 86.3372 33.1371 86.3372C35.9507 86.3372 38.2617 87.1782 40.0668 88.8602C41.8718 90.5422 42.7778 92.7643 42.7778 95.5232C42.7778 98.8051 41.7282 101.4 39.6326 103.301C37.537 105.205 34.6379 106.155 30.9423 106.155C27.2467 106.155 24.1699 104.935 21.9649 102.494C19.7598 100.053 18.6556 96.6958 18.6556 92.419C18.6556 87.5371 19.794 83.6946 22.0674 80.8947C24.3443 78.0948 27.5373 76.6965 31.6466 76.6965V76.6931ZM27.0109 95.6428C27.0109 96.8018 27.3698 97.7521 28.0877 98.4974C28.8057 99.2427 29.756 99.6153 30.9423 99.6153C32.1286 99.6153 33.1987 99.229 33.9849 98.4564C34.7712 97.6838 35.1644 96.7471 35.1644 95.6428C35.1644 94.6241 34.7781 93.7318 34.0055 92.9728C33.2328 92.2139 32.197 91.8344 30.9013 91.8344C29.8244 91.8344 28.9082 92.1934 28.1493 92.9113C27.3903 93.6292 27.0109 94.5386 27.0109 95.6428Z" fill="#1A1A1A"/>
<path d="M58.2915 76.6931C60.5513 76.6931 62.6572 77.2914 64.6024 78.4913C66.5476 79.6913 68.0313 81.3938 69.0501 83.6023C70.0689 85.8107 70.5817 88.4157 70.5817 91.4242C70.5817 96.1146 69.3954 99.7418 67.0228 102.306C64.6503 104.87 61.7546 106.152 58.3325 106.152C54.9105 106.152 51.9875 104.87 49.6423 102.306C47.2971 99.7418 46.1108 96.1146 46.0834 91.4242C46.0834 86.7338 47.2834 83.1065 49.6833 80.5425C52.0832 77.9785 54.9515 76.6965 58.2881 76.6965L58.2915 76.6931ZM53.9464 91.4208C53.9464 94.2343 54.2848 96.3368 54.9583 97.7316C55.6352 99.1265 56.7429 99.8205 58.2881 99.8205C59.7513 99.8205 60.8521 99.1743 61.5974 97.8752C62.3427 96.5795 62.7153 94.4292 62.7153 91.4208C62.7153 88.4123 62.3495 86.2962 61.6179 84.9868C60.8863 83.6775 59.7889 83.0211 58.3291 83.0211C56.8694 83.0211 55.8061 83.6638 55.0609 84.9458C54.3156 86.2278 53.943 88.3884 53.943 91.4208H53.9464Z" fill="#1A1A1A"/>
<path d="M87.0468 91.3799V98.1659H74.0968V91.3799H87.0468Z" fill="#1A1A1A"/>
<path d="M106.409 76.2761C110.519 76.2761 113.746 77.5923 116.091 80.2281C118.436 82.8639 119.609 86.4535 119.609 91.0072C119.609 95.9164 118.3 99.612 115.677 102.097C113.055 104.579 109.414 105.82 104.755 105.82H91.3502V76.2795H106.409V76.2761ZM104.136 98.2479C106.177 98.2479 107.75 97.6052 108.854 96.3232C109.958 95.0412 110.508 93.2259 110.508 90.8807C110.508 88.703 109.893 86.9868 108.669 85.7288C107.442 84.4741 105.726 83.8451 103.517 83.8451H100.454V98.2445H104.136V98.2479Z" fill="#1A1A1A"/>
<path d="M139.636 76.2761L150.395 105.817H140.963L139.722 101.598H130.331L128.967 105.817H119.863L130.744 76.2761H139.64H139.636ZM132.313 95.2703H137.9L135.25 86.1663H135.168L132.313 95.2703Z" fill="#1A1A1A"/>
<path d="M155.399 76.2761L160.322 87.1578L165.453 76.2761H175.425L164.834 94.9353V105.817H155.73V94.9353L145.345 76.2761H155.399Z" fill="#1A1A1A"/>
<path d="M61.6806 124.989C62.6515 125.953 63.1267 126.951 63.1096 127.984C63.0926 129.016 62.5661 130.052 61.5336 131.091L59.1748 128.746C59.7457 128.168 60.0773 127.717 60.1696 127.392C60.2585 127.064 60.1901 126.79 59.9645 126.565C59.7286 126.329 59.479 126.223 59.2192 126.24C58.9594 126.257 58.6346 126.408 58.2551 126.688C57.8722 126.968 57.0859 127.707 55.8997 128.903C54.4672 130.346 53.6365 131.296 53.4006 131.761C53.1681 132.223 53.2126 132.616 53.5339 132.937C53.8382 133.241 54.2108 133.293 54.6518 133.098C55.0894 132.9 55.6433 132.465 56.3133 131.792L55.4484 130.934L57.0894 129.283L60.2345 132.407L55.1852 137.494L53.5339 135.853L54.3031 134.975L54.2758 134.947C53.3459 135.361 52.3374 135.029 51.2537 133.953C50.5631 133.265 50.1631 132.592 50.0571 131.932C49.9512 131.272 50.1016 130.561 50.5118 129.809C50.9221 129.054 51.8656 127.936 53.3425 126.449C54.645 125.136 55.7356 124.264 56.6176 123.83C57.4996 123.396 58.3543 123.273 59.1782 123.454C60.0021 123.638 60.8362 124.151 61.6841 124.992L61.6806 124.989Z" fill="white"/>
<path d="M67.8139 130.387L62.6072 138.305C62.2825 138.797 62.1149 139.193 62.1047 139.487C62.0944 139.785 62.2483 140.034 62.5662 140.246C62.8944 140.462 63.1952 140.503 63.4619 140.363C63.7286 140.222 64.0226 139.915 64.3337 139.443L69.5403 131.525L72.412 133.412L67.66 140.636C66.7404 142.034 65.7832 142.865 64.7849 143.125C63.7901 143.385 62.6209 143.074 61.2842 142.195C59.9475 141.316 59.1988 140.366 59.0416 139.351C58.8843 138.332 59.2774 137.111 60.2176 135.679L64.9388 128.5L67.8105 130.387H67.8139Z" fill="white"/>
<path d="M78.9997 136.123L77.0442 149.559L73.6529 148.191L74.193 145.918L71.6563 144.896L70.4666 146.906L67.0753 145.535L74.993 134.506L79.0031 136.123H78.9997ZM72.9999 142.646L74.781 143.364L76.0015 137.819L75.9673 137.805L72.9965 142.643L72.9999 142.646Z" fill="white"/>
<path d="M87.3585 138.188C88.4627 138.387 89.2696 138.828 89.7755 139.518C90.2849 140.209 90.4387 141.125 90.2336 142.263C89.9054 144.106 88.9824 145.005 87.4645 144.961L87.4577 144.998C88.1995 145.193 88.6952 145.552 88.9448 146.079C89.1943 146.605 89.2422 147.316 89.0815 148.215L88.8217 149.672C88.7192 150.243 88.6713 150.667 88.6781 150.95C88.685 151.234 88.7978 151.48 89.0234 151.696L88.9926 151.877L85.3928 151.238C85.2492 150.786 85.2697 150.041 85.4543 148.998L85.6423 147.945C85.7688 147.231 85.7928 146.711 85.7141 146.39C85.6321 146.068 85.362 145.867 84.9005 145.785L83.9911 145.624L83.0647 150.827L79.6802 150.226L81.9878 137.238L87.3551 138.192L87.3585 138.188ZM84.3979 143.33L85.0885 143.453C85.5364 143.532 85.9056 143.46 86.1962 143.238C86.4868 143.016 86.6748 142.653 86.7637 142.158C86.8594 141.624 86.8184 141.221 86.6406 140.944C86.4628 140.667 86.121 140.486 85.6116 140.393L84.9381 140.274L84.3945 143.33H84.3979Z" fill="white"/>
<path d="M98.5814 138.66L102.229 151.737L98.5745 151.856L98.1472 149.559L95.4157 149.651L95.1422 151.969L91.4876 152.089L94.2636 138.801L98.5848 138.657L98.5814 138.66ZM95.737 147.053L97.6583 146.992L96.5302 141.426H96.4926L95.737 147.053Z" fill="white"/>
<path d="M105.491 137.566L109.593 144.926L109.631 144.916L107.682 137.026L110.803 136.257L113.966 149.063L110.308 149.965L106.13 142.605L106.096 142.615L108.048 150.526L104.927 151.295L101.764 138.489L105.494 137.566H105.491Z" fill="white"/>
<path d="M118.766 132.537L119.997 135.183L117.652 136.274L121.98 145.59L118.862 147.039L114.534 137.723L112.189 138.814L110.958 136.168L118.766 132.541V132.537Z" fill="white"/>
<path d="M125.381 127.881L126.991 130.182L123.405 132.691L124.697 134.537L128.058 132.185L129.603 134.393L126.242 136.745L127.747 138.896L131.47 136.291L133.08 138.592L126.54 143.169L118.978 132.363L125.381 127.881Z" fill="white"/>
<path d="M131.51 121.765L133.506 123.741L130.426 126.856L132.03 128.442L134.915 125.526L136.833 127.423L133.947 130.339L135.814 132.185L139.01 128.955L141.007 130.927L135.394 136.602L126.016 127.327L131.51 121.772V121.765Z" fill="white"/>
<path d="M49.2732 50.7661L55.9431 55.0668L55.967 55.0394L51.1843 48.708L54.5277 45.1082L64.1958 54.0822L62.0078 56.4376L54.8047 49.7507L54.7807 49.7781L60.7395 57.8051L59.0541 59.6204L50.6065 54.2736L50.5826 54.301L57.7857 60.9879L55.5978 63.3434L45.9298 54.3693L49.2732 50.7695V50.7661Z" fill="white"/>
<path d="M60.712 40.4278C62.1102 39.4842 63.3922 39.2278 64.5546 39.6518C65.7169 40.0791 67.016 41.3543 68.4485 43.4773C69.8672 45.5797 70.5612 47.2549 70.5304 48.5027C70.4997 49.7505 69.7817 50.8445 68.3733 51.7949C66.9442 52.759 65.6486 53.0119 64.4862 52.5538C63.3239 52.0957 62.0419 50.8274 60.6368 48.742C59.218 46.6395 58.5206 44.9678 58.5377 43.7302C58.5582 42.4927 59.283 41.3919 60.712 40.4278ZM63.5768 46.7626C64.3973 47.9797 64.9819 48.7899 65.3306 49.2001C65.6828 49.6104 65.9904 49.8702 66.2571 49.9796C66.5237 50.089 66.7938 50.0514 67.0707 49.8668C67.4468 49.6138 67.5596 49.2241 67.4023 48.7078C67.2451 48.1916 66.6126 47.1079 65.505 45.4635C64.7426 44.3285 64.1683 43.5354 63.7854 43.0807C63.4025 42.626 63.0811 42.3457 62.8179 42.2397C62.5547 42.1371 62.2812 42.1782 61.994 42.373C61.6145 42.626 61.5051 43.0089 61.659 43.5114C61.8128 44.0174 62.4521 45.1011 63.5734 46.766L63.5768 46.7626Z" fill="white"/>
<path d="M70.9375 35.1459L76.0792 41.8192L76.1134 41.8055L73.0229 34.2878L75.9971 33.064L81.0158 45.2618L77.5287 46.6942L72.3118 40.0312L72.2776 40.0449L75.3749 47.5797L72.4007 48.8035L67.3821 36.6057L70.9375 35.1425V35.1459Z" fill="white"/>
<path d="M86.8447 30.6709L87.3917 33.4263L83.0978 34.2776L83.5354 36.4895L87.5592 35.6895L88.0856 38.3356L84.0619 39.1355L84.5712 41.7098L89.0292 40.8244L89.5762 43.5798L81.7474 45.1353L79.18 32.1956L86.8447 30.6743V30.6709Z" fill="white"/>
<path d="M92.499 30.3155L93.8665 34.8931H93.9041L95.1211 30.271L98.8885 30.2095L95.6579 38.2639L95.7433 43.4534L92.3076 43.5081L92.2221 38.3186L88.7316 30.3736L92.499 30.312V30.3155Z" fill="white"/>
<path d="M111.968 32.7325C113.072 33.0401 113.845 33.5529 114.282 34.2675C114.723 34.9854 114.802 35.8469 114.521 36.8554C114.306 37.628 113.957 38.2126 113.475 38.616C112.993 39.0194 112.412 39.1972 111.735 39.1493L111.725 39.1835C112.453 39.4638 112.945 39.9288 113.205 40.5817C113.465 41.2347 113.482 41.9595 113.263 42.756C112.918 44.0004 112.327 44.8448 111.496 45.2858C110.665 45.7268 109.643 45.7781 108.433 45.4397L103.397 44.038L106.932 31.3308L111.968 32.7325ZM107.37 42.5782L108.279 42.8312C108.624 42.927 108.946 42.8688 109.246 42.6603C109.547 42.4518 109.77 42.0962 109.906 41.5971C110.04 41.1219 110.029 40.7185 109.879 40.3835C109.728 40.0484 109.482 39.8331 109.137 39.7373L108.228 39.4844L107.366 42.5817L107.37 42.5782ZM108.853 37.2383L109.636 37.4571C110.016 37.5631 110.323 37.5084 110.563 37.293C110.802 37.0776 110.966 36.8041 111.058 36.4725C111.175 36.0588 111.164 35.7067 111.024 35.4195C110.887 35.1324 110.665 34.9444 110.354 34.8589L109.571 34.6401L108.85 37.2383H108.853Z" fill="white"/>
<path d="M124.357 37.8844L121.226 51.0942L117.968 49.4327L118.706 47.2174L116.272 45.9764L114.908 47.8738L111.65 46.2123L120.508 35.9255L124.357 37.8913V37.8844ZM117.804 43.8569L119.517 44.7286L121.223 39.3134L121.188 39.2964L117.804 43.8534V43.8569Z" fill="white"/>
<path d="M132.61 43.1183C134.85 44.8721 135.106 46.8515 133.383 49.0532L132.88 49.6924L130.262 47.6412L130.525 47.3062C131.109 46.5609 131.431 46.031 131.486 45.7234C131.54 45.4157 131.438 45.1559 131.174 44.9507C130.815 44.6704 130.416 44.6807 129.974 44.9849C129.533 45.2892 128.696 46.2259 127.465 47.7951C126.211 49.395 125.496 50.4377 125.318 50.9232C125.14 51.4086 125.229 51.7949 125.588 52.0753C125.899 52.318 126.228 52.3385 126.576 52.1334C126.925 51.9283 127.428 51.4052 128.091 50.5608L128.398 50.1676L131.017 52.2188L130.402 53.0051C128.525 55.3982 126.44 55.6956 124.142 53.8974C123.192 53.1521 122.583 52.4137 122.313 51.6787C122.043 50.9437 122.074 50.1266 122.406 49.2275C122.734 48.3284 123.489 47.1284 124.665 45.6242C126.252 43.597 127.633 42.4073 128.805 42.0483C129.978 41.6893 131.246 42.0483 132.614 43.1183H132.61Z" fill="white"/>
<path d="M140.131 50.5232L136.306 53.8394L136.33 53.8667L141.824 52.4787L144.22 55.241L137.687 56.5025L134.521 64.1877L131.957 61.2271L134.115 56.6905L132.805 56.8717L130.166 59.1588L127.917 56.5606L137.885 47.9216L140.135 50.5198L140.131 50.5232Z" fill="white"/>
</g>
<defs>
<linearGradient id="paint0_linear_0_184" x1="-60.0757" y1="-27.5065" x2="288.487" y2="242.65" gradientUnits="userSpaceOnUse">
<stop offset="0.25" stop-color="#E1AF07"/>
<stop offset="0.35" stop-color="#FCBE1A"/>
<stop offset="0.46" stop-color="#CB9500"/>
<stop offset="0.68" stop-color="#CB9500"/>
<stop offset="0.79" stop-color="#FCBE1A"/>
<stop offset="1" stop-color="#C59200"/>
</linearGradient>
<linearGradient id="paint1_linear_0_184" x1="51.6432" y1="15.9622" x2="221.862" y2="209.743" gradientUnits="userSpaceOnUse">
<stop offset="0.25" stop-color="#E1AF07"/>
<stop offset="0.35" stop-color="#FCBE1A"/>
<stop offset="0.46" stop-color="#CB9500"/>
<stop offset="0.68" stop-color="#CB9500"/>
<stop offset="0.79" stop-color="#FCBE1A"/>
<stop offset="1" stop-color="#C59200"/>
</linearGradient>
<linearGradient id="paint2_linear_0_184" x1="143.624" y1="141.022" x2="46.006" y2="42.5435" gradientUnits="userSpaceOnUse">
<stop offset="0.25" stop-color="#E1AF07"/>
<stop offset="0.35" stop-color="#FCBE1A"/>
<stop offset="0.46" stop-color="#CB9500"/>
<stop offset="0.68" stop-color="#CB9500"/>
<stop offset="0.79" stop-color="#FCBE1A"/>
<stop offset="1" stop-color="#C59200"/>
</linearGradient>
<linearGradient id="paint3_linear_0_184" x1="115.968" y1="127.758" x2="73.6615" y2="54.4787" gradientUnits="userSpaceOnUse">
<stop stop-color="#B5B5B5"/>
<stop offset="0.75" stop-color="#EDEDED"/>
</linearGradient>
<linearGradient id="paint4_linear_0_184" x1="148.225" y1="145.716" x2="40.5015" y2="38.871" gradientUnits="userSpaceOnUse">
<stop stop-color="#FDDB81"/>
<stop offset="1" stop-color="#7E5C02"/>
</linearGradient>
<linearGradient id="paint5_linear_0_184" x1="160.554" y1="108.802" x2="144.061" y2="44.8796" gradientUnits="userSpaceOnUse">
<stop stop-color="#E1AF07"/>
<stop offset="0.52" stop-color="#FCBE1A"/>
<stop offset="1" stop-color="#CB9500"/>
</linearGradient>
<linearGradient id="paint6_linear_0_184" x1="269.393" y1="229.243" x2="28.4395" y2="75.9668" gradientUnits="userSpaceOnUse">
<stop offset="0.25" stop-color="#E1AF07"/>
<stop offset="0.35" stop-color="#FCBE1A"/>
<stop offset="0.46" stop-color="#CB9500"/>
<stop offset="0.68" stop-color="#CB9500"/>
<stop offset="0.79" stop-color="#FCBE1A"/>
<stop offset="1" stop-color="#C59200"/>
</linearGradient>
<clipPath id="clip0_0_184">
<rect width="188.089" height="182" fill="white" transform="translate(0.455658 0.118408)"/>
</clipPath>
</defs>
</svg>
